<mxfile host="Electron" agent="Mozilla/5.0 (Windows NT 10.0; Win64; x64) AppleWebKit/537.36 (KHTML, like Gecko) draw.io/25.0.1 Chrome/128.0.6613.186 Electron/32.2.6 Safari/537.36" version="25.0.1">
  <diagram name="Страница — 1" id="7LHV4ycNqsQ8m1l04sAO">
    <mxGraphModel dx="2072" dy="1228" grid="0" gridSize="10" guides="1" tooltips="1" connect="1" arrows="1" fold="1" page="1" pageScale="1" pageWidth="2339" pageHeight="3300" math="0" shadow="0">
      <root>
        <mxCell id="0" />
        <mxCell id="1" parent="0" />
        <mxCell id="wrjr4zWvlbEoYJj3tI5p-1" value="&lt;font face=&quot;Times New Roman&quot;&gt;&lt;span style=&quot;font-size: 20px;&quot;&gt;Создание курса&lt;/span&gt;&lt;/font&gt;" style="rounded=0;whiteSpace=wrap;html=1;" parent="1" vertex="1">
          <mxGeometry x="881.5" y="538" width="242" height="102" as="geometry" />
        </mxCell>
        <mxCell id="wrjr4zWvlbEoYJj3tI5p-2" value="А0" style="text;html=1;strokeColor=none;fillColor=none;align=center;verticalAlign=middle;whiteSpace=wrap;rounded=0;" parent="1" vertex="1">
          <mxGeometry x="1077.5" y="610" width="60" height="30" as="geometry" />
        </mxCell>
        <mxCell id="wrjr4zWvlbEoYJj3tI5p-3" value="" style="endArrow=classic;html=1;rounded=0;entryX=0;entryY=0.5;entryDx=0;entryDy=0;" parent="1" target="wrjr4zWvlbEoYJj3tI5p-1" edge="1">
          <mxGeometry width="50" height="50" relative="1" as="geometry">
            <mxPoint x="711.5" y="589" as="sourcePoint" />
            <mxPoint x="1004.5" y="714" as="targetPoint" />
          </mxGeometry>
        </mxCell>
        <mxCell id="wrjr4zWvlbEoYJj3tI5p-4" value="учебный материал, тесты для самоконтроля" style="text;html=1;strokeColor=none;fillColor=none;align=center;verticalAlign=middle;whiteSpace=wrap;rounded=0;" parent="1" vertex="1">
          <mxGeometry x="721.5" y="530" width="111" height="51" as="geometry" />
        </mxCell>
        <mxCell id="wrjr4zWvlbEoYJj3tI5p-5" value="" style="endArrow=classic;html=1;rounded=0;entryX=0.5;entryY=0;entryDx=0;entryDy=0;" parent="1" target="wrjr4zWvlbEoYJj3tI5p-1" edge="1">
          <mxGeometry width="50" height="50" relative="1" as="geometry">
            <mxPoint x="1002.5" y="421" as="sourcePoint" />
            <mxPoint x="1004.5" y="714" as="targetPoint" />
          </mxGeometry>
        </mxCell>
        <mxCell id="wrjr4zWvlbEoYJj3tI5p-6" value="иметь подключение к интернету, находться на сайте, не нарушать авторские права" style="text;html=1;strokeColor=none;fillColor=none;align=center;verticalAlign=middle;whiteSpace=wrap;rounded=0;" parent="1" vertex="1">
          <mxGeometry x="1015.5" y="450" width="180" height="55" as="geometry" />
        </mxCell>
        <mxCell id="wrjr4zWvlbEoYJj3tI5p-7" value="" style="endArrow=classic;html=1;rounded=0;entryX=0.5;entryY=1;entryDx=0;entryDy=0;" parent="1" target="wrjr4zWvlbEoYJj3tI5p-1" edge="1">
          <mxGeometry width="50" height="50" relative="1" as="geometry">
            <mxPoint x="1002.5" y="703" as="sourcePoint" />
            <mxPoint x="1011.5" y="721" as="targetPoint" />
          </mxGeometry>
        </mxCell>
        <mxCell id="wrjr4zWvlbEoYJj3tI5p-8" value="Администратор" style="text;html=1;strokeColor=none;fillColor=none;align=center;verticalAlign=middle;whiteSpace=wrap;rounded=0;" parent="1" vertex="1">
          <mxGeometry x="1015.5" y="663" width="74" height="37" as="geometry" />
        </mxCell>
        <mxCell id="wrjr4zWvlbEoYJj3tI5p-9" value="Курс" style="text;html=1;strokeColor=none;fillColor=none;align=center;verticalAlign=middle;whiteSpace=wrap;rounded=0;" parent="1" vertex="1">
          <mxGeometry x="1131.5" y="560" width="99" height="30" as="geometry" />
        </mxCell>
        <mxCell id="wrjr4zWvlbEoYJj3tI5p-11" value="" style="endArrow=classic;html=1;rounded=0;exitX=1;exitY=0.5;exitDx=0;exitDy=0;" parent="1" source="wrjr4zWvlbEoYJj3tI5p-1" edge="1">
          <mxGeometry width="50" height="50" relative="1" as="geometry">
            <mxPoint x="1154.5" y="588.5" as="sourcePoint" />
            <mxPoint x="1261.5" y="589" as="targetPoint" />
          </mxGeometry>
        </mxCell>
        <mxCell id="wrjr4zWvlbEoYJj3tI5p-13" style="edgeStyle=orthogonalEdgeStyle;rounded=0;orthogonalLoop=1;jettySize=auto;html=1;exitX=1;exitY=0.5;exitDx=0;exitDy=0;" parent="1" source="wrjr4zWvlbEoYJj3tI5p-14" target="wrjr4zWvlbEoYJj3tI5p-20" edge="1">
          <mxGeometry relative="1" as="geometry">
            <mxPoint x="646" y="657" as="targetPoint" />
            <Array as="points">
              <mxPoint x="606" y="657" />
              <mxPoint x="606" y="737" />
            </Array>
          </mxGeometry>
        </mxCell>
        <mxCell id="wrjr4zWvlbEoYJj3tI5p-14" value="Работа с разделами" style="rounded=0;whiteSpace=wrap;html=1;" parent="1" vertex="1">
          <mxGeometry x="396" y="627" width="160" height="60" as="geometry" />
        </mxCell>
        <mxCell id="wrjr4zWvlbEoYJj3tI5p-15" value="" style="endArrow=classic;html=1;rounded=0;entryX=0.5;entryY=1;entryDx=0;entryDy=0;" parent="1" target="wrjr4zWvlbEoYJj3tI5p-14" edge="1">
          <mxGeometry width="50" height="50" relative="1" as="geometry">
            <mxPoint x="476" y="757" as="sourcePoint" />
            <mxPoint x="606" y="867" as="targetPoint" />
          </mxGeometry>
        </mxCell>
        <mxCell id="wrjr4zWvlbEoYJj3tI5p-16" value="" style="endArrow=classic;html=1;rounded=0;entryX=0;entryY=0.5;entryDx=0;entryDy=0;" parent="1" target="wrjr4zWvlbEoYJj3tI5p-14" edge="1">
          <mxGeometry width="50" height="50" relative="1" as="geometry">
            <mxPoint x="296" y="657" as="sourcePoint" />
            <mxPoint x="606" y="867" as="targetPoint" />
          </mxGeometry>
        </mxCell>
        <mxCell id="wrjr4zWvlbEoYJj3tI5p-17" value="" style="endArrow=classic;html=1;rounded=0;entryX=0.5;entryY=0;entryDx=0;entryDy=0;" parent="1" target="wrjr4zWvlbEoYJj3tI5p-14" edge="1">
          <mxGeometry width="50" height="50" relative="1" as="geometry">
            <mxPoint x="476" y="536" as="sourcePoint" />
            <mxPoint x="496" y="867" as="targetPoint" />
          </mxGeometry>
        </mxCell>
        <mxCell id="wrjr4zWvlbEoYJj3tI5p-18" value="Курс" style="text;html=1;strokeColor=none;fillColor=none;align=center;verticalAlign=middle;whiteSpace=wrap;rounded=0;" parent="1" vertex="1">
          <mxGeometry x="316" y="627" width="60" height="30" as="geometry" />
        </mxCell>
        <mxCell id="wrjr4zWvlbEoYJj3tI5p-19" style="edgeStyle=orthogonalEdgeStyle;rounded=0;orthogonalLoop=1;jettySize=auto;html=1;exitX=1;exitY=0.5;exitDx=0;exitDy=0;entryX=0;entryY=0.5;entryDx=0;entryDy=0;" parent="1" source="wrjr4zWvlbEoYJj3tI5p-20" target="wrjr4zWvlbEoYJj3tI5p-25" edge="1">
          <mxGeometry relative="1" as="geometry">
            <mxPoint x="966" y="737" as="targetPoint" />
            <Array as="points">
              <mxPoint x="886" y="737" />
              <mxPoint x="886" y="817" />
            </Array>
          </mxGeometry>
        </mxCell>
        <mxCell id="wrjr4zWvlbEoYJj3tI5p-20" value="&lt;span style=&quot;background-color: rgb(251, 251, 251);&quot;&gt;Заполнение курса&lt;/span&gt;" style="rounded=0;whiteSpace=wrap;html=1;" parent="1" vertex="1">
          <mxGeometry x="696" y="707" width="160" height="60" as="geometry" />
        </mxCell>
        <mxCell id="wrjr4zWvlbEoYJj3tI5p-21" value="" style="endArrow=classic;html=1;rounded=0;entryX=0.5;entryY=1;entryDx=0;entryDy=0;" parent="1" target="wrjr4zWvlbEoYJj3tI5p-20" edge="1">
          <mxGeometry width="50" height="50" relative="1" as="geometry">
            <mxPoint x="776" y="837" as="sourcePoint" />
            <mxPoint x="736" y="847" as="targetPoint" />
          </mxGeometry>
        </mxCell>
        <mxCell id="wrjr4zWvlbEoYJj3tI5p-22" value="" style="endArrow=classic;html=1;rounded=0;entryX=0.5;entryY=0;entryDx=0;entryDy=0;" parent="1" target="wrjr4zWvlbEoYJj3tI5p-20" edge="1">
          <mxGeometry width="50" height="50" relative="1" as="geometry">
            <mxPoint x="776" y="637" as="sourcePoint" />
            <mxPoint x="676" y="867" as="targetPoint" />
          </mxGeometry>
        </mxCell>
        <mxCell id="wrjr4zWvlbEoYJj3tI5p-23" value="иметь подключение к интернету, находться на сайте" style="text;html=1;strokeColor=none;fillColor=none;align=center;verticalAlign=middle;whiteSpace=wrap;rounded=0;" parent="1" vertex="1">
          <mxGeometry x="481" y="567" width="138" height="30" as="geometry" />
        </mxCell>
        <mxCell id="wrjr4zWvlbEoYJj3tI5p-24" value="Администратор" style="text;html=1;strokeColor=none;fillColor=none;align=center;verticalAlign=middle;whiteSpace=wrap;rounded=0;" parent="1" vertex="1">
          <mxGeometry x="798" y="787" width="60" height="30" as="geometry" />
        </mxCell>
        <mxCell id="wrjr4zWvlbEoYJj3tI5p-25" value="&lt;span style=&quot;background-color: rgb(251, 251, 251);&quot;&gt;Добавление уроков&lt;/span&gt;" style="rounded=0;whiteSpace=wrap;html=1;" parent="1" vertex="1">
          <mxGeometry x="996" y="787" width="153" height="60" as="geometry" />
        </mxCell>
        <mxCell id="wrjr4zWvlbEoYJj3tI5p-26" value="" style="endArrow=classic;html=1;rounded=0;entryX=0.5;entryY=1;entryDx=0;entryDy=0;" parent="1" target="wrjr4zWvlbEoYJj3tI5p-25" edge="1">
          <mxGeometry width="50" height="50" relative="1" as="geometry">
            <mxPoint x="1073" y="907" as="sourcePoint" />
            <mxPoint x="996" y="907" as="targetPoint" />
          </mxGeometry>
        </mxCell>
        <mxCell id="wrjr4zWvlbEoYJj3tI5p-27" value="" style="endArrow=classic;html=1;rounded=0;entryX=0.5;entryY=0;entryDx=0;entryDy=0;" parent="1" target="wrjr4zWvlbEoYJj3tI5p-25" edge="1">
          <mxGeometry width="50" height="50" relative="1" as="geometry">
            <mxPoint x="1073" y="707" as="sourcePoint" />
            <mxPoint x="996" y="907" as="targetPoint" />
          </mxGeometry>
        </mxCell>
        <mxCell id="wrjr4zWvlbEoYJj3tI5p-28" value="иметь подключение к интернету" style="text;html=1;strokeColor=none;fillColor=none;align=center;verticalAlign=middle;whiteSpace=wrap;rounded=0;" parent="1" vertex="1">
          <mxGeometry x="1382" y="806" width="60" height="30" as="geometry" />
        </mxCell>
        <mxCell id="wrjr4zWvlbEoYJj3tI5p-29" value="А1" style="text;html=1;strokeColor=none;fillColor=none;align=center;verticalAlign=middle;whiteSpace=wrap;rounded=0;" parent="1" vertex="1">
          <mxGeometry x="514" y="662" width="60" height="30" as="geometry" />
        </mxCell>
        <mxCell id="wrjr4zWvlbEoYJj3tI5p-30" value="А2" style="text;html=1;strokeColor=none;fillColor=none;align=center;verticalAlign=middle;whiteSpace=wrap;rounded=0;" parent="1" vertex="1">
          <mxGeometry x="812" y="743" width="60" height="30" as="geometry" />
        </mxCell>
        <mxCell id="wrjr4zWvlbEoYJj3tI5p-31" value="А3" style="text;html=1;strokeColor=none;fillColor=none;align=center;verticalAlign=middle;whiteSpace=wrap;rounded=0;" parent="1" vertex="1">
          <mxGeometry x="1106" y="823" width="60" height="30" as="geometry" />
        </mxCell>
        <mxCell id="wrjr4zWvlbEoYJj3tI5p-32" value="Администратор" style="text;html=1;strokeColor=none;fillColor=none;align=center;verticalAlign=middle;whiteSpace=wrap;rounded=0;" parent="1" vertex="1">
          <mxGeometry x="1096" y="867" width="60" height="30" as="geometry" />
        </mxCell>
        <mxCell id="wrjr4zWvlbEoYJj3tI5p-33" value="Администратор" style="text;html=1;strokeColor=none;fillColor=none;align=center;verticalAlign=middle;whiteSpace=wrap;rounded=0;" parent="1" vertex="1">
          <mxGeometry x="486" y="699" width="80" height="44" as="geometry" />
        </mxCell>
        <mxCell id="wrjr4zWvlbEoYJj3tI5p-34" style="edgeStyle=orthogonalEdgeStyle;rounded=0;orthogonalLoop=1;jettySize=auto;html=1;exitX=1;exitY=0.5;exitDx=0;exitDy=0;entryX=0;entryY=0.5;entryDx=0;entryDy=0;" parent="1" target="wrjr4zWvlbEoYJj3tI5p-36" edge="1">
          <mxGeometry relative="1" as="geometry">
            <mxPoint x="1259" y="817" as="targetPoint" />
            <mxPoint x="1149" y="817" as="sourcePoint" />
            <Array as="points">
              <mxPoint x="1186" y="818" />
              <mxPoint x="1186" y="897" />
            </Array>
          </mxGeometry>
        </mxCell>
        <mxCell id="wrjr4zWvlbEoYJj3tI5p-35" style="edgeStyle=orthogonalEdgeStyle;rounded=0;orthogonalLoop=1;jettySize=auto;html=1;exitX=1;exitY=0.5;exitDx=0;exitDy=0;" parent="1" source="wrjr4zWvlbEoYJj3tI5p-36" edge="1">
          <mxGeometry relative="1" as="geometry">
            <mxPoint x="1549" y="897" as="targetPoint" />
          </mxGeometry>
        </mxCell>
        <mxCell id="wrjr4zWvlbEoYJj3tI5p-36" value="Добавление тестов" style="rounded=0;whiteSpace=wrap;html=1;" parent="1" vertex="1">
          <mxGeometry x="1289" y="867" width="153" height="60" as="geometry" />
        </mxCell>
        <mxCell id="wrjr4zWvlbEoYJj3tI5p-37" value="" style="endArrow=classic;html=1;rounded=0;entryX=0.5;entryY=1;entryDx=0;entryDy=0;" parent="1" target="wrjr4zWvlbEoYJj3tI5p-36" edge="1">
          <mxGeometry width="50" height="50" relative="1" as="geometry">
            <mxPoint x="1366" y="987" as="sourcePoint" />
            <mxPoint x="1289" y="987" as="targetPoint" />
          </mxGeometry>
        </mxCell>
        <mxCell id="wrjr4zWvlbEoYJj3tI5p-38" value="" style="endArrow=classic;html=1;rounded=0;entryX=0.5;entryY=0;entryDx=0;entryDy=0;" parent="1" target="wrjr4zWvlbEoYJj3tI5p-36" edge="1">
          <mxGeometry width="50" height="50" relative="1" as="geometry">
            <mxPoint x="1366" y="787" as="sourcePoint" />
            <mxPoint x="1289" y="987" as="targetPoint" />
          </mxGeometry>
        </mxCell>
        <mxCell id="wrjr4zWvlbEoYJj3tI5p-39" value="нет урока с таким же названием, материал соответствует теме" style="text;html=1;strokeColor=none;fillColor=none;align=center;verticalAlign=middle;whiteSpace=wrap;rounded=0;" parent="1" vertex="1">
          <mxGeometry x="1086" y="722" width="180" height="42" as="geometry" />
        </mxCell>
        <mxCell id="wrjr4zWvlbEoYJj3tI5p-40" value="Курс" style="text;html=1;strokeColor=none;fillColor=none;align=center;verticalAlign=middle;whiteSpace=wrap;rounded=0;" parent="1" vertex="1">
          <mxGeometry x="1447" y="863" width="94" height="30" as="geometry" />
        </mxCell>
        <mxCell id="wrjr4zWvlbEoYJj3tI5p-41" value="А4" style="text;html=1;strokeColor=none;fillColor=none;align=center;verticalAlign=middle;whiteSpace=wrap;rounded=0;" parent="1" vertex="1">
          <mxGeometry x="1402" y="902" width="60" height="30" as="geometry" />
        </mxCell>
        <mxCell id="wrjr4zWvlbEoYJj3tI5p-42" value="Администратор" style="text;html=1;strokeColor=none;fillColor=none;align=center;verticalAlign=middle;whiteSpace=wrap;rounded=0;" parent="1" vertex="1">
          <mxGeometry x="1387" y="941" width="60" height="30" as="geometry" />
        </mxCell>
        <mxCell id="wrjr4zWvlbEoYJj3tI5p-43" value="материал не нарушающий авторские права&amp;nbsp;" style="text;html=1;strokeColor=none;fillColor=none;align=center;verticalAlign=middle;whiteSpace=wrap;rounded=0;" parent="1" vertex="1">
          <mxGeometry x="776" y="657" width="138" height="30" as="geometry" />
        </mxCell>
        <mxCell id="wrjr4zWvlbEoYJj3tI5p-44" value="текст урока, изображения и видео" style="text;html=1;strokeColor=none;fillColor=none;align=center;verticalAlign=middle;whiteSpace=wrap;rounded=0;" parent="1" vertex="1">
          <mxGeometry x="619" y="692" width="60" height="30" as="geometry" />
        </mxCell>
        <mxCell id="wrjr4zWvlbEoYJj3tI5p-46" value="уроки" style="text;html=1;strokeColor=none;fillColor=none;align=center;verticalAlign=middle;whiteSpace=wrap;rounded=0;" parent="1" vertex="1">
          <mxGeometry x="914" y="767" width="60" height="30" as="geometry" />
        </mxCell>
        <mxCell id="wrjr4zWvlbEoYJj3tI5p-47" style="edgeStyle=orthogonalEdgeStyle;rounded=0;orthogonalLoop=1;jettySize=auto;html=1;exitX=1;exitY=0.5;exitDx=0;exitDy=0;" parent="1" source="wrjr4zWvlbEoYJj3tI5p-48" target="wrjr4zWvlbEoYJj3tI5p-54" edge="1">
          <mxGeometry relative="1" as="geometry">
            <mxPoint x="740" y="910" as="targetPoint" />
            <Array as="points">
              <mxPoint x="700" y="910" />
              <mxPoint x="700" y="990" />
            </Array>
          </mxGeometry>
        </mxCell>
        <mxCell id="wrjr4zWvlbEoYJj3tI5p-48" value="Подбор информации" style="rounded=0;whiteSpace=wrap;html=1;" parent="1" vertex="1">
          <mxGeometry x="490" y="880" width="160" height="60" as="geometry" />
        </mxCell>
        <mxCell id="wrjr4zWvlbEoYJj3tI5p-49" value="" style="endArrow=classic;html=1;rounded=0;entryX=0.5;entryY=1;entryDx=0;entryDy=0;" parent="1" target="wrjr4zWvlbEoYJj3tI5p-48" edge="1">
          <mxGeometry width="50" height="50" relative="1" as="geometry">
            <mxPoint x="570" y="1010" as="sourcePoint" />
            <mxPoint x="700" y="1120" as="targetPoint" />
          </mxGeometry>
        </mxCell>
        <mxCell id="wrjr4zWvlbEoYJj3tI5p-50" value="" style="endArrow=classic;html=1;rounded=0;entryX=0;entryY=0.5;entryDx=0;entryDy=0;" parent="1" target="wrjr4zWvlbEoYJj3tI5p-48" edge="1">
          <mxGeometry width="50" height="50" relative="1" as="geometry">
            <mxPoint x="390" y="910" as="sourcePoint" />
            <mxPoint x="700" y="1120" as="targetPoint" />
          </mxGeometry>
        </mxCell>
        <mxCell id="wrjr4zWvlbEoYJj3tI5p-51" value="" style="endArrow=classic;html=1;rounded=0;entryX=0.5;entryY=0;entryDx=0;entryDy=0;" parent="1" target="wrjr4zWvlbEoYJj3tI5p-48" edge="1">
          <mxGeometry width="50" height="50" relative="1" as="geometry">
            <mxPoint x="570" y="789" as="sourcePoint" />
            <mxPoint x="590" y="1120" as="targetPoint" />
          </mxGeometry>
        </mxCell>
        <mxCell id="wrjr4zWvlbEoYJj3tI5p-52" value="Информация" style="text;html=1;strokeColor=none;fillColor=none;align=center;verticalAlign=middle;whiteSpace=wrap;rounded=0;" parent="1" vertex="1">
          <mxGeometry x="410" y="880" width="60" height="30" as="geometry" />
        </mxCell>
        <mxCell id="wrjr4zWvlbEoYJj3tI5p-53" style="edgeStyle=orthogonalEdgeStyle;rounded=0;orthogonalLoop=1;jettySize=auto;html=1;exitX=1;exitY=0.5;exitDx=0;exitDy=0;entryX=0;entryY=0.5;entryDx=0;entryDy=0;" parent="1" source="wrjr4zWvlbEoYJj3tI5p-54" target="wrjr4zWvlbEoYJj3tI5p-59" edge="1">
          <mxGeometry relative="1" as="geometry">
            <mxPoint x="1060" y="990" as="targetPoint" />
            <Array as="points">
              <mxPoint x="980" y="990" />
              <mxPoint x="980" y="1070" />
            </Array>
          </mxGeometry>
        </mxCell>
        <mxCell id="wrjr4zWvlbEoYJj3tI5p-54" value="&lt;span style=&quot;background-color: rgb(251, 251, 251);&quot;&gt;Составление вопросов&lt;/span&gt;" style="rounded=0;whiteSpace=wrap;html=1;" parent="1" vertex="1">
          <mxGeometry x="790" y="960" width="160" height="60" as="geometry" />
        </mxCell>
        <mxCell id="wrjr4zWvlbEoYJj3tI5p-55" value="" style="endArrow=classic;html=1;rounded=0;entryX=0.5;entryY=1;entryDx=0;entryDy=0;" parent="1" target="wrjr4zWvlbEoYJj3tI5p-54" edge="1">
          <mxGeometry width="50" height="50" relative="1" as="geometry">
            <mxPoint x="870" y="1090" as="sourcePoint" />
            <mxPoint x="830" y="1100" as="targetPoint" />
          </mxGeometry>
        </mxCell>
        <mxCell id="wrjr4zWvlbEoYJj3tI5p-56" value="" style="endArrow=classic;html=1;rounded=0;entryX=0.5;entryY=0;entryDx=0;entryDy=0;" parent="1" target="wrjr4zWvlbEoYJj3tI5p-54" edge="1">
          <mxGeometry width="50" height="50" relative="1" as="geometry">
            <mxPoint x="870" y="890" as="sourcePoint" />
            <mxPoint x="770" y="1120" as="targetPoint" />
          </mxGeometry>
        </mxCell>
        <mxCell id="wrjr4zWvlbEoYJj3tI5p-57" value="подходящяа под тематику урока" style="text;html=1;strokeColor=none;fillColor=none;align=center;verticalAlign=middle;whiteSpace=wrap;rounded=0;" parent="1" vertex="1">
          <mxGeometry x="575" y="820" width="138" height="30" as="geometry" />
        </mxCell>
        <mxCell id="wrjr4zWvlbEoYJj3tI5p-58" value="Администратор" style="text;html=1;strokeColor=none;fillColor=none;align=center;verticalAlign=middle;whiteSpace=wrap;rounded=0;" parent="1" vertex="1">
          <mxGeometry x="892" y="1040" width="60" height="30" as="geometry" />
        </mxCell>
        <mxCell id="wrjr4zWvlbEoYJj3tI5p-59" value="&lt;span style=&quot;background-color: rgb(251, 251, 251);&quot;&gt;Добавление ответов&lt;/span&gt;" style="rounded=0;whiteSpace=wrap;html=1;" parent="1" vertex="1">
          <mxGeometry x="1090" y="1040" width="153" height="60" as="geometry" />
        </mxCell>
        <mxCell id="wrjr4zWvlbEoYJj3tI5p-60" value="" style="endArrow=classic;html=1;rounded=0;entryX=0.5;entryY=1;entryDx=0;entryDy=0;" parent="1" target="wrjr4zWvlbEoYJj3tI5p-59" edge="1">
          <mxGeometry width="50" height="50" relative="1" as="geometry">
            <mxPoint x="1167" y="1160" as="sourcePoint" />
            <mxPoint x="1090" y="1160" as="targetPoint" />
          </mxGeometry>
        </mxCell>
        <mxCell id="wrjr4zWvlbEoYJj3tI5p-61" value="" style="endArrow=classic;html=1;rounded=0;entryX=0.5;entryY=0;entryDx=0;entryDy=0;" parent="1" target="wrjr4zWvlbEoYJj3tI5p-59" edge="1">
          <mxGeometry width="50" height="50" relative="1" as="geometry">
            <mxPoint x="1167" y="960" as="sourcePoint" />
            <mxPoint x="1090" y="1160" as="targetPoint" />
          </mxGeometry>
        </mxCell>
        <mxCell id="wrjr4zWvlbEoYJj3tI5p-62" value="корректно составдены с избежанием множественных вариантов" style="text;html=1;strokeColor=none;fillColor=none;align=center;verticalAlign=middle;whiteSpace=wrap;rounded=0;" parent="1" vertex="1">
          <mxGeometry x="1174.5" y="974" width="143" height="52" as="geometry" />
        </mxCell>
        <mxCell id="wrjr4zWvlbEoYJj3tI5p-63" value="А3.1" style="text;html=1;strokeColor=none;fillColor=none;align=center;verticalAlign=middle;whiteSpace=wrap;rounded=0;" parent="1" vertex="1">
          <mxGeometry x="608" y="915" width="60" height="30" as="geometry" />
        </mxCell>
        <mxCell id="wrjr4zWvlbEoYJj3tI5p-64" value="А3.2" style="text;html=1;strokeColor=none;fillColor=none;align=center;verticalAlign=middle;whiteSpace=wrap;rounded=0;" parent="1" vertex="1">
          <mxGeometry x="906" y="996" width="60" height="30" as="geometry" />
        </mxCell>
        <mxCell id="wrjr4zWvlbEoYJj3tI5p-65" value="А3.3" style="text;html=1;strokeColor=none;fillColor=none;align=center;verticalAlign=middle;whiteSpace=wrap;rounded=0;" parent="1" vertex="1">
          <mxGeometry x="1200" y="1076" width="60" height="30" as="geometry" />
        </mxCell>
        <mxCell id="wrjr4zWvlbEoYJj3tI5p-66" value="Администратор" style="text;html=1;strokeColor=none;fillColor=none;align=center;verticalAlign=middle;whiteSpace=wrap;rounded=0;" parent="1" vertex="1">
          <mxGeometry x="1190" y="1120" width="60" height="30" as="geometry" />
        </mxCell>
        <mxCell id="wrjr4zWvlbEoYJj3tI5p-67" value="Администратор" style="text;html=1;strokeColor=none;fillColor=none;align=center;verticalAlign=middle;whiteSpace=wrap;rounded=0;" parent="1" vertex="1">
          <mxGeometry x="580" y="952" width="80" height="44" as="geometry" />
        </mxCell>
        <mxCell id="wrjr4zWvlbEoYJj3tI5p-68" style="edgeStyle=orthogonalEdgeStyle;rounded=0;orthogonalLoop=1;jettySize=auto;html=1;exitX=1;exitY=0.5;exitDx=0;exitDy=0;" parent="1" edge="1">
          <mxGeometry relative="1" as="geometry">
            <mxPoint x="1324.5" y="1071" as="targetPoint" />
            <mxPoint x="1243" y="1070" as="sourcePoint" />
            <Array as="points">
              <mxPoint x="1264.5" y="1070" />
              <mxPoint x="1344.5" y="1071" />
            </Array>
          </mxGeometry>
        </mxCell>
        <mxCell id="wrjr4zWvlbEoYJj3tI5p-69" value="коректно составленны, без двусмысленности и с соблюдением правил авфографии" style="text;html=1;strokeColor=none;fillColor=none;align=center;verticalAlign=middle;whiteSpace=wrap;rounded=0;" parent="1" vertex="1">
          <mxGeometry x="870" y="910" width="138" height="30" as="geometry" />
        </mxCell>
        <mxCell id="wrjr4zWvlbEoYJj3tI5p-70" value="вопросы" style="text;html=1;strokeColor=none;fillColor=none;align=center;verticalAlign=middle;whiteSpace=wrap;rounded=0;" parent="1" vertex="1">
          <mxGeometry x="713" y="945" width="60" height="30" as="geometry" />
        </mxCell>
        <mxCell id="wrjr4zWvlbEoYJj3tI5p-71" value="тест" style="text;html=1;strokeColor=none;fillColor=none;align=center;verticalAlign=middle;whiteSpace=wrap;rounded=0;" parent="1" vertex="1">
          <mxGeometry x="1250" y="1040" width="60" height="30" as="geometry" />
        </mxCell>
        <mxCell id="wrjr4zWvlbEoYJj3tI5p-72" value="варинты ответа" style="text;html=1;strokeColor=none;fillColor=none;align=center;verticalAlign=middle;whiteSpace=wrap;rounded=0;" parent="1" vertex="1">
          <mxGeometry x="1008" y="1020" width="60" height="30" as="geometry" />
        </mxCell>
        <mxCell id="wrjr4zWvlbEoYJj3tI5p-73" value="тесты" style="text;html=1;strokeColor=none;fillColor=none;align=center;verticalAlign=middle;whiteSpace=wrap;rounded=0;" parent="1" vertex="1">
          <mxGeometry x="1201.5" y="853" width="60" height="30" as="geometry" />
        </mxCell>
      </root>
    </mxGraphModel>
  </diagram>
</mxfile>
